<?xml version="1.0" encoding="UTF-8" standalone="no"?>
<!DOCTYPE svg PUBLIC "-//W3C//DTD SVG 1.0//EN" "http://www.w3.org/TR/2001/PR-SVG-20010719/DTD/svg10.dtd">
<svg width="27cm" height="11cm" viewBox="5 138 522 202" xmlns="http://www.w3.org/2000/svg" xmlns:xlink="http://www.w3.org/1999/xlink">
  <g>
    <rect style="fill: #ffffff" x="171" y="164" width="80" height="36" rx="10" ry="10"/>
    <rect style="fill: none; fill-opacity:0; stroke-width: 2; stroke: #000000" x="171" y="164" width="80" height="36" rx="10" ry="10"/>
    <text font-size="12.7998" style="fill: #000000;text-anchor:middle;font-family:sans-serif;font-style:normal;font-weight:normal" x="211" y="185.9">
      <tspan x="211" y="185.9">state</tspan>
    </text>
  </g>
  <g>
    <rect style="fill: #ffffff" x="350" y="253" width="101.6" height="36" rx="20" ry="20"/>
    <rect style="fill: none; fill-opacity:0; stroke-width: 2; stroke: #000000" x="350" y="253" width="101.6" height="36" rx="20" ry="20"/>
    <text font-size="12.7998" style="fill: #000000;text-anchor:middle;font-family:sans-serif;font-style:normal;font-weight:normal" x="400.8" y="274.9">
      <tspan x="400.8" y="274.9">update state</tspan>
    </text>
  </g>
  <g>
    <polygon style="fill: #ffffff" points="191,271 211,251 231,271 211,291 "/>
    <polygon style="fill: none; fill-opacity:0; stroke-width: 2; stroke: #000000" points="191,271 211,251 231,271 211,291 "/>
  </g>
  <g>
    <polyline style="fill: none; fill-opacity:0; stroke-width: 2; stroke: #000000" points="231,271 241,271 340,271 345.528,271 "/>
    <polyline style="fill: none; fill-opacity:0; stroke-width: 2; stroke: #000000" points="337.764,276 347.764,271 337.764,266 "/>
    <text font-size="12.7998" style="fill: #000000;text-anchor:middle;font-family:sans-serif;font-style:normal;font-weight:normal" x="283" y="257">has items left</text>
  </g>
  <g>
    <polyline style="fill: none; fill-opacity:0; stroke-width: 2; stroke: #000000" points="211,291 211,317 322,317 322,306.472 "/>
    <polyline style="fill: none; fill-opacity:0; stroke-width: 2; stroke: #000000" points="327,314.236 322,304.236 317,314.236 "/>
    <text font-size="12.7998" style="fill: #000000;text-anchor:middle;font-family:sans-serif;font-style:normal;font-weight:normal" x="253" y="335">(return 'done)</text>
  </g>
  <ellipse style="fill: #000000" cx="77" cy="182" rx="10" ry="10"/>
  <g>
    <ellipse style="fill: #ffffff" cx="511" cy="270" rx="15" ry="15"/>
    <ellipse style="fill: none; fill-opacity:0; stroke-width: 2; stroke: #000000" cx="511" cy="270" rx="15" ry="15"/>
    <ellipse style="fill: #000000" cx="511" cy="270" rx="10" ry="10"/>
  </g>
  <g>
    <polyline style="fill: none; fill-opacity:0; stroke-width: 2; stroke: #000000" points="211,200 211,225.5 211,225.5 211,246.528 "/>
    <polyline style="fill: none; fill-opacity:0; stroke-width: 2; stroke: #000000" points="206,238.764 211,248.764 216,238.764 "/>
    <text font-size="12.7998" style="fill: #000000;text-anchor:middle;font-family:sans-serif;font-style:normal;font-weight:normal" x="161" y="230">(for-each)</text>
  </g>
  <g>
    <polyline style="fill: none; fill-opacity:0; stroke-width: 2; stroke: #000000" points="88.0043,182 129.503,182 129.503,182 166.528,182 "/>
    <polyline style="fill: none; fill-opacity:0; stroke-width: 2; stroke: #000000" points="158.764,187 168.764,182 158.764,177 "/>
    <text font-size="12.7998" style="fill: #000000;text-anchor:middle;font-family:sans-serif;font-style:normal;font-weight:normal" x="120" y="163">(next)</text>
  </g>
  <g>
    <polyline style="fill: none; fill-opacity:0; stroke-width: 2; stroke: #000000" points="13,182 39.4973,182 39.4973,182 61.5316,182 "/>
    <polyline style="fill: none; fill-opacity:0; stroke-width: 2; stroke: #000000" points="53.7677,187 63.7677,182 53.7677,177 "/>
    <text font-size="12.7998" style="fill: #000000;text-anchor:middle;font-family:sans-serif;font-style:normal;font-weight:normal" x="32" y="162">(iterate)</text>
  </g>
  <g>
    <polyline style="fill: none; fill-opacity:0; stroke-width: 2; stroke: #000000" points="400.8,289 400.8,319.996 511,319.996 511,290.291 "/>
    <polyline style="fill: none; fill-opacity:0; stroke-width: 2; stroke: #000000" points="516,298.055 511,288.055 506,298.055 "/>
    <text font-size="12.7998" style="fill: #000000;text-anchor:middle;font-family:sans-serif;font-style:normal;font-weight:normal" x="453" y="336">(return item)</text>
  </g>
  <g>
    <ellipse style="fill: #ffffff" cx="322" cy="317" rx="15" ry="15"/>
    <ellipse style="fill: none; fill-opacity:0; stroke-width: 2; stroke: #000000" cx="322" cy="317" rx="15" ry="15"/>
    <ellipse style="fill: #000000" cx="322" cy="317" rx="10" ry="10"/>
  </g>
  <g>
    <polygon style="fill: #ffffff" points="316,139 468.3,139 480.3,151 480.3,173 316,173 "/>
    <polygon style="fill: none; fill-opacity:0; stroke-width: 2; stroke: #000000" points="316,139 468.3,139 480.3,151 480.3,173 316,173 "/>
    <polyline style="fill: none; fill-opacity:0; stroke-width: 1; stroke: #000000" points="468.3,139 468.3,151 480.3,151 "/>
    <text font-size="12.7998" style="fill: #000000;text-anchor:start;font-family:monospace;font-style:normal;font-weight:normal" x="323" y="163.9">
      <tspan x="323" y="163.9">(set state item-cc)</tspan>
    </text>
  </g>
  <g>
    <polyline style="fill: none; fill-opacity:0; stroke-width: 2; stroke-dasharray: 8; stroke: #000000" points="400.8,253 400.8,182 257.705,182 "/>
    <polyline style="fill: none; fill-opacity:0; stroke-width: 2; stroke: #000000" points="270.353,177 254.353,182 270.353,187 "/>
  </g>
</svg>
